<?xml version="1.0" encoding="UTF-8" standalone="no"?>
<svg
   id="Layer_2"
   data-name="Layer 2"
   viewBox="0 0 2178.6789 278.0321"
   version="1.1"
   width="2178.679"
   height="278.0321"
   xmlns="http://www.w3.org/2000/svg"
   xmlns:svg="http://www.w3.org/2000/svg">
  <defs
     id="defs1">
    <style
       id="style1">
      .cls-1 {
        fill: #ff7e56;
      }

      .cls-2 {
        fill: #fff;
      }
    </style>
  </defs>
  <g
     id="Graphics"
     transform="translate(-172.02495,44.989834)">
    <g
       id="g20">
      <g
         id="g14"
         transform="matrix(0.94200594,0,0,0.94200594,69.019062,14.55448)">
        <path
           class="cls-1"
           d="m 682.65,161.32 c -20.9,11.17 -44.28,16.75 -70.12,16.75 -13.09,0 -25.09,-2.12 -36.02,-6.34 -10.93,-4.23 -20.34,-10.21 -28.24,-17.95 -7.9,-7.73 -14.08,-17.03 -18.55,-27.88 -4.47,-10.85 -6.7,-22.89 -6.7,-36.14 0,-13.25 2.23,-25.89 6.7,-36.98 4.47,-11.09 10.65,-20.54 18.55,-28.36 7.9,-7.82 17.31,-13.84 28.24,-18.07 C 587.43,2.13 599.44,0 612.52,0 c 13.08,0 25.05,1.56 36.38,4.67 11.33,3.11 21.46,8.66 30.4,16.63 l -22.26,22.5 c -5.43,-5.27 -12.01,-9.34 -19.75,-12.21 -7.74,-2.87 -15.92,-4.31 -24.53,-4.31 -8.61,0 -16.72,1.56 -23.82,4.67 -7.1,3.11 -13.21,7.42 -18.31,12.92 -5.11,5.5 -9.06,11.93 -11.85,19.27 -2.79,7.34 -4.19,15.24 -4.19,23.7 0,9.09 1.39,17.47 4.19,25.13 2.79,7.66 6.74,14.28 11.85,19.86 5.1,5.59 11.21,9.97 18.31,13.16 7.1,3.19 15.04,4.79 23.82,4.79 7.66,0 14.88,-0.72 21.66,-2.15 6.78,-1.43 12.8,-3.67 18.07,-6.7 v -39.97 h -34.7 V 74.68 h 64.86 z"
           id="path1" />
        <path
           class="cls-1"
           d="m 709.69,19.88 c 0,-4.63 1.71,-8.66 5.15,-12.09 3.43,-3.43 7.78,-5.15 13.04,-5.15 5.26,0 9.69,1.64 13.28,4.91 3.59,3.27 5.39,7.38 5.39,12.33 0,4.95 -1.79,9.06 -5.39,12.33 -3.59,3.27 -8.02,4.91 -13.28,4.91 -5.26,0 -9.61,-1.71 -13.04,-5.15 -3.43,-3.43 -5.15,-7.46 -5.15,-12.09 z m 4.07,39 h 28.72 v 114.88 h -28.72 z"
           id="path2" />
        <path
           class="cls-1"
           d="M 759.71,83.3 V 58.89 h 23.7 V 25.62 h 28.72 v 33.27 h 31.59 V 83.3 h -31.59 v 50.26 c 0,5.74 1.08,10.29 3.23,13.64 2.15,3.35 6.42,5.02 12.8,5.02 2.55,0 5.34,-0.27 8.38,-0.84 3.03,-0.56 5.42,-1.47 7.18,-2.75 v 24.17 c -3.03,1.44 -6.74,2.43 -11.13,2.99 -4.39,0.56 -8.26,0.84 -11.61,0.84 -7.66,0 -13.92,-0.84 -18.79,-2.51 -4.87,-1.67 -8.7,-4.23 -11.49,-7.66 -2.79,-3.43 -4.71,-7.7 -5.75,-12.8 -1.04,-5.1 -1.55,-11.01 -1.55,-17.71 V 83.3 h -23.7 z"
           id="path3" />
        <path
           class="cls-1"
           d="m 857.36,89.76 c 0,-13.56 2.23,-25.89 6.7,-36.98 4.47,-11.09 10.65,-20.54 18.55,-28.36 7.9,-7.82 17.31,-13.84 28.24,-18.07 C 921.78,2.13 933.79,0 946.87,0 c 13.24,-0.15 25.37,1.79 36.38,5.87 11.01,4.07 20.5,10.01 28.48,17.83 7.98,7.82 14.2,17.23 18.67,28.24 4.46,11.01 6.7,23.3 6.7,36.86 0,13.56 -2.24,25.29 -6.7,36.14 -4.47,10.85 -10.69,20.19 -18.67,28 -7.98,7.82 -17.47,13.92 -28.48,18.31 -11.01,4.39 -23.14,6.66 -36.38,6.82 -13.09,0 -25.09,-2.12 -36.02,-6.34 -10.93,-4.23 -20.34,-10.21 -28.24,-17.95 -7.9,-7.73 -14.08,-17.03 -18.55,-27.88 -4.47,-10.85 -6.7,-22.89 -6.7,-36.14 z m 31.59,-1.91 c 0,9.09 1.39,17.47 4.19,25.13 2.79,7.66 6.74,14.28 11.85,19.86 5.1,5.59 11.21,9.97 18.31,13.16 7.1,3.19 15.04,4.79 23.82,4.79 8.78,0 16.75,-1.59 23.93,-4.79 7.18,-3.19 13.32,-7.58 18.43,-13.16 5.1,-5.58 9.06,-12.21 11.85,-19.86 2.79,-7.66 4.19,-16.04 4.19,-25.13 0,-8.46 -1.4,-16.35 -4.19,-23.7 -2.79,-7.34 -6.74,-13.76 -11.85,-19.27 -5.11,-5.5 -11.25,-9.81 -18.43,-12.92 -7.18,-3.11 -15.16,-4.67 -23.93,-4.67 -8.77,0 -16.72,1.56 -23.82,4.67 -7.1,3.11 -13.21,7.42 -18.31,12.92 -5.11,5.5 -9.06,11.93 -11.85,19.27 -2.79,7.34 -4.19,15.24 -4.19,23.7 z"
           id="path4" />
        <path
           class="cls-1"
           d="m 1060.79,58.88 h 27.28 v 17.23 h 0.48 c 4.15,-7.02 9.73,-12.12 16.75,-15.31 7.02,-3.19 14.6,-4.79 22.74,-4.79 8.77,0 16.67,1.55 23.69,4.67 7.02,3.11 13,7.38 17.95,12.8 4.94,5.43 8.7,11.81 11.25,19.14 2.55,7.34 3.83,15.24 3.83,23.7 0,8.46 -1.36,16.36 -4.07,23.7 -2.72,7.34 -6.5,13.73 -11.37,19.15 -4.87,5.43 -10.73,9.69 -17.59,12.8 -6.86,3.11 -14.36,4.67 -22.5,4.67 -5.43,0 -10.21,-0.56 -14.36,-1.68 -4.15,-1.12 -7.82,-2.55 -11.01,-4.31 -3.19,-1.75 -5.91,-3.63 -8.14,-5.62 -2.24,-1.99 -4.07,-3.95 -5.5,-5.86 h -0.72 v 69.17 h -28.72 V 58.88 Z m 95.26,57.45 c 0,-4.46 -0.76,-8.77 -2.27,-12.92 -1.52,-4.15 -3.75,-7.82 -6.7,-11.01 -2.95,-3.19 -6.5,-5.75 -10.65,-7.66 -4.15,-1.91 -8.86,-2.87 -14.12,-2.87 -5.26,0 -9.97,0.96 -14.12,2.87 -4.15,1.91 -7.7,4.47 -10.65,7.66 -2.95,3.19 -5.19,6.86 -6.7,11.01 -1.52,4.15 -2.27,8.46 -2.27,12.92 0,4.46 0.76,8.78 2.27,12.92 1.51,4.15 3.75,7.82 6.7,11.01 2.95,3.19 6.5,5.74 10.65,7.66 4.15,1.91 8.85,2.87 14.12,2.87 5.27,0 9.97,-0.96 14.12,-2.87 4.15,-1.91 7.7,-4.46 10.65,-7.66 2.95,-3.19 5.18,-6.86 6.7,-11.01 1.52,-4.15 2.27,-8.45 2.27,-12.92 z"
           id="path5" />
        <path
           class="cls-1"
           d="m 1270.45,90.72 c -5.59,-7.82 -13.09,-11.73 -22.5,-11.73 -3.83,0 -7.58,0.96 -11.25,2.87 -3.67,1.91 -5.5,5.02 -5.5,9.33 0,3.51 1.51,6.07 4.55,7.66 3.03,1.6 6.86,2.95 11.49,4.07 4.63,1.12 9.61,2.27 14.96,3.47 5.34,1.19 10.33,3.03 14.96,5.5 4.63,2.48 8.46,5.87 11.49,10.17 3.03,4.31 4.55,10.21 4.55,17.71 0,6.86 -1.48,12.65 -4.43,17.35 -2.95,4.71 -6.78,8.5 -11.49,11.37 -4.71,2.87 -10.01,4.95 -15.92,6.23 -5.91,1.27 -11.81,1.91 -17.71,1.91 -8.94,0 -17.15,-1.28 -24.65,-3.83 -7.5,-2.55 -14.2,-7.18 -20.1,-13.88 l 19.15,-17.95 c 3.67,4.15 7.62,7.54 11.85,10.17 4.22,2.63 9.37,3.95 15.44,3.95 2.07,0 4.23,-0.24 6.46,-0.72 2.23,-0.48 4.31,-1.28 6.22,-2.39 1.91,-1.11 3.47,-2.51 4.67,-4.19 1.2,-1.67 1.79,-3.63 1.79,-5.86 0,-3.99 -1.52,-6.94 -4.55,-8.86 -3.03,-1.91 -6.86,-3.47 -11.49,-4.67 -4.63,-1.19 -9.61,-2.31 -14.96,-3.35 -5.35,-1.04 -10.33,-2.71 -14.96,-5.03 -4.63,-2.31 -8.46,-5.54 -11.49,-9.69 -3.03,-4.15 -4.55,-9.89 -4.55,-17.23 0,-6.38 1.32,-11.93 3.95,-16.63 2.63,-4.7 6.1,-8.57 10.41,-11.61 4.31,-3.03 9.25,-5.27 14.84,-6.7 5.58,-1.44 11.25,-2.15 16.99,-2.15 7.66,0 15.24,1.31 22.74,3.95 7.5,2.63 13.56,7.14 18.19,13.52 l -19.15,17.23 z"
           id="path6" />
        <path
           class="cls-1"
           d="m 1402.3555,4.2815312 h 56.96 c 8.14,0 16,0.8 23.58,2.39 7.58,1.6 14.24,4.2699998 19.98,8.0199998 5.74,3.75 10.33,8.78 13.76,15.08 3.43,6.3 5.15,14.16 5.15,23.58 0,10.69 -1.84,19.31 -5.51,25.85 -3.67,6.54 -8.62,11.61 -14.84,15.2 -6.22,3.59 -13.44,6.019999 -21.66,7.299999 -8.22,1.28 -16.8,1.91 -25.73,1.91 h -21.54 v 70.13001 h -30.16 V 4.2915312 Z m 48.34,73.4799998 c 4.31,0 8.77,-0.15 13.4,-0.48 4.63,-0.32 8.89,-1.28 12.8,-2.87 3.91,-1.59 7.1,-3.99 9.57,-7.18 2.47,-3.19 3.71,-7.66 3.71,-13.4 0,-5.27 -1.12,-9.46 -3.35,-12.56 -2.24,-3.11 -5.11,-5.51 -8.62,-7.18 -3.51,-1.67 -7.42,-2.75 -11.73,-3.23 -4.31,-0.48 -8.46,-0.72 -12.45,-0.72 h -21.54 v 47.63 h 18.19 z"
           id="path7" />
        <path
           class="cls-1"
           d="m 1543.5555,58.851531 h 28.72 v 18.19 h 0.48 c 3.19,-6.7 7.74,-11.88 13.64,-15.56 5.9,-3.67 12.68,-5.5 20.34,-5.5 1.75,0 3.47,0.16 5.15,0.48 1.67,0.32 3.39,0.72 5.15,1.19 v 27.76 c -2.39,-0.64 -4.75,-1.16 -7.06,-1.55 -2.31,-0.4 -4.59,-0.6 -6.82,-0.6 -6.7,0 -12.09,1.24 -16.16,3.71 -4.07,2.48 -7.18,5.31 -9.33,8.5 -2.15,3.19 -3.59,6.389999 -4.31,9.579999 -0.72,3.19001 -1.08,5.58001 -1.08,7.18001 v 61.51 h -28.72 V 58.861531 Z"
           id="path8" />
        <path
           class="cls-1"
           d="m 1624.2155,116.29154 c 0,-9.09001 1.63,-17.350011 4.91,-24.770009 3.27,-7.42 7.7,-13.76 13.28,-19.03 5.58,-5.27 12.21,-9.34 19.86,-12.21 7.66,-2.87 15.8,-4.31 24.41,-4.31 8.61,0 16.75,1.43 24.41,4.31 7.66,2.87 14.28,6.94 19.86,12.21 5.58,5.26 10.01,11.61 13.28,19.03 3.27,7.419998 4.91,15.679999 4.91,24.770009 0,9.09 -1.64,17.35 -4.91,24.77 -3.27,7.42 -7.7,13.76 -13.28,19.03 -5.59,5.27 -12.21,9.34 -19.86,12.21 -7.66,2.87 -15.8,4.31 -24.41,4.31 -8.61,0 -16.75,-1.44 -24.41,-4.31 -7.66,-2.87 -14.28,-6.94 -19.86,-12.21 -5.59,-5.26 -10.01,-11.61 -13.28,-19.03 -3.27,-7.42 -4.91,-15.67 -4.91,-24.77 z m 28.72,0 c 0,4.47 0.76,8.78 2.27,12.92 1.51,4.15 3.75,7.82 6.7,11.01 2.95,3.19 6.5,5.74 10.65,7.66 4.15,1.91 8.86,2.87 14.12,2.87 5.26,0 9.97,-0.96 14.12,-2.87 4.15,-1.91 7.7,-4.46 10.65,-7.66 2.95,-3.19 5.18,-6.86 6.7,-11.01 1.51,-4.15 2.27,-8.45 2.27,-12.92 0,-4.47 -0.76,-8.77001 -2.27,-12.92001 -1.52,-4.150001 -3.75,-7.819999 -6.7,-11.009999 -2.95,-3.19 -6.5,-5.75 -10.65,-7.66 -4.15,-1.91 -8.85,-2.87 -14.12,-2.87 -5.27,0 -9.97,0.96 -14.12,2.87 -4.15,1.91 -7.7,4.47 -10.65,7.66 -2.95,3.19 -5.19,6.859998 -6.7,11.009999 -1.52,4.15 -2.27,8.46001 -2.27,12.92001 z"
           id="path9" />
        <path
           class="cls-1"
           d="m 1772.3555,58.851531 h 27.28 v 17.95 h 0.48 c 2.55,-5.42 6.66,-10.25 12.33,-14.48 5.66,-4.23 13.28,-6.34 22.86,-6.34 18.03,0 29.99,7.1 35.9,21.3 4.15,-7.34 9.33,-12.72 15.56,-16.16 6.22,-3.43 13.64,-5.14 22.26,-5.14 7.66,0 14.12,1.28 19.39,3.83 5.27,2.55 9.53,6.06 12.8,10.53 3.27,4.47 5.62,9.69 7.06,15.68 1.44,5.98 2.15,12.41 2.15,19.259999 v 68.45001 h -28.72 v -65.1 c 0,-3.51001 -0.32,-6.90001 -0.96,-10.170009 -0.64,-3.27 -1.76,-6.14 -3.35,-8.62 -1.6,-2.47 -3.75,-4.43 -6.46,-5.86 -2.72,-1.44 -6.22,-2.15 -10.53,-2.15 -4.31,0 -8.26,0.84 -11.37,2.51 -3.11,1.68 -5.67,3.91 -7.66,6.7 -2,2.79 -3.43,5.98 -4.31,9.579999 -0.88,3.59 -1.31,7.22001 -1.31,10.89001 v 62.23 h -28.72 v -68.45001 c 0,-7.179999 -1.52,-12.879999 -4.55,-17.109999 -3.03,-4.23 -8.06,-6.34 -15.08,-6.34 -4.79,0 -8.82,0.8 -12.09,2.39 -3.27,1.6 -5.98,3.75 -8.14,6.46 -2.15,2.72 -3.71,5.83 -4.67,9.339999 -0.96,3.51 -1.44,7.18 -1.44,11.01001 v 62.7 h -28.72 V 58.861531 Z"
           id="path10" />
        <path
           class="cls-1"
           d="m 1973.6455,116.29154 c 0,-9.09001 1.63,-17.350011 4.91,-24.770009 3.27,-7.42 7.7,-13.76 13.28,-19.03 5.58,-5.27 12.21,-9.34 19.86,-12.21 7.66,-2.87 15.8,-4.31 24.41,-4.31 8.61,0 16.75,1.43 24.41,4.31 7.66,2.87 14.28,6.94 19.86,12.21 5.58,5.26 10.01,11.61 13.28,19.03 3.27,7.419998 4.91,15.679999 4.91,24.770009 0,9.09 -1.64,17.35 -4.91,24.77 -3.27,7.42 -7.7,13.76 -13.28,19.03 -5.59,5.27 -12.21,9.34 -19.86,12.21 -7.66,2.87 -15.8,4.31 -24.41,4.31 -8.61,0 -16.75,-1.44 -24.41,-4.31 -7.66,-2.87 -14.28,-6.94 -19.86,-12.21 -5.59,-5.26 -10.01,-11.61 -13.28,-19.03 -3.27,-7.42 -4.91,-15.67 -4.91,-24.77 z m 28.72,0 c 0,4.47 0.76,8.78 2.27,12.92 1.51,4.15 3.75,7.82 6.7,11.01 2.95,3.19 6.5,5.74 10.65,7.66 4.15,1.91 8.86,2.87 14.12,2.87 5.26,0 9.97,-0.96 14.12,-2.87 4.15,-1.91 7.7,-4.46 10.65,-7.66 2.95,-3.19 5.18,-6.86 6.7,-11.01 1.51,-4.15 2.27,-8.45 2.27,-12.92 0,-4.47 -0.76,-8.77001 -2.27,-12.92001 -1.52,-4.150001 -3.75,-7.819999 -6.7,-11.009999 -2.95,-3.19 -6.5,-5.75 -10.65,-7.66 -4.15,-1.91 -8.85,-2.87 -14.12,-2.87 -5.27,0 -9.97,0.96 -14.12,2.87 -4.15,1.91 -7.7,4.47 -10.65,7.66 -2.95,3.19 -5.19,6.859998 -6.7,11.009999 -1.52,4.15 -2.27,8.46001 -2.27,12.92001 z"
           id="path11" />
        <path
           class="cls-1"
           d="m 2109.5755,83.271531 v -24.41 h 23.7 v -33.27 h 28.72 v 33.27 h 31.59 v 24.41 h -31.59 v 50.260009 c 0,5.74 1.08,10.29 3.23,13.64 2.15,3.35 6.42,5.02 12.8,5.02 2.55,0 5.34,-0.27 8.38,-0.84 3.03,-0.56 5.42,-1.47 7.18,-2.75 v 24.17 c -3.03,1.44 -6.74,2.43 -11.13,2.99 -4.39,0.56 -8.26,0.84 -11.61,0.84 -7.66,0 -13.92,-0.84 -18.79,-2.51 -4.87,-1.67 -8.7,-4.23 -11.49,-7.66 -2.79,-3.43 -4.71,-7.7 -5.75,-12.8 -1.04,-5.1 -1.55,-11.01 -1.55,-17.71 V 83.271531 h -23.7 z"
           id="path12" />
        <path
           class="cls-1"
           d="m 2236.6655,126.34154 c 0.96,8.62 4.31,15.32 10.05,20.11 5.75,4.79 12.68,7.18 20.82,7.18 7.18,0 13.2,-1.48 18.07,-4.43 4.87,-2.95 9.13,-6.66 12.8,-11.13 l 20.58,15.56 c -6.7,8.3 -14.2,14.2 -22.5,17.71 -8.3,3.51 -16.99,5.27 -26.09,5.27 -8.62,0 -16.75,-1.44 -24.41,-4.31 -7.66,-2.87 -14.28,-6.94 -19.86,-12.21 -5.59,-5.26 -10.01,-11.61 -13.28,-19.03 -3.27,-7.42 -4.91,-15.67 -4.91,-24.77 0,-9.10001 1.63,-17.350011 4.91,-24.770009 3.27,-7.42 7.7,-13.76 13.28,-19.03 5.58,-5.27 12.21,-9.34 19.86,-12.21 7.66,-2.87 15.8,-4.31 24.41,-4.31 7.98,0 15.28,1.4 21.9,4.19 6.62,2.79 12.28,6.82 16.99,12.09 4.7,5.27 8.38,11.77 11.01,19.51 2.63,7.739998 3.95,16.630009 3.95,26.680009 v 7.9 h -87.6 z m 58.88,-21.53001 c -0.16,-8.459999 -2.79,-15.119999 -7.9,-19.989999 -5.11,-4.86 -12.21,-7.3 -21.3,-7.3 -8.62,0 -15.44,2.48 -20.46,7.42 -5.03,4.95 -8.1,11.57 -9.21,19.869999 h 58.88 z"
           id="path13" />
        <path
           class="cls-1"
           d="m 2348.6755,58.851531 h 28.72 v 18.19 h 0.48 c 3.19,-6.7 7.74,-11.88 13.64,-15.56 5.9,-3.67 12.68,-5.5 20.34,-5.5 1.75,0 3.47,0.16 5.15,0.48 1.67,0.32 3.39,0.72 5.15,1.19 v 27.76 c -2.39,-0.64 -4.75,-1.16 -7.06,-1.55 -2.31,-0.4 -4.59,-0.6 -6.82,-0.6 -6.7,0 -12.09,1.24 -16.16,3.71 -4.07,2.48 -7.18,5.31 -9.33,8.5 -2.15,3.19 -3.59,6.389999 -4.31,9.579999 -0.72,3.19001 -1.08,5.58001 -1.08,7.18001 v 61.51 h -28.72 V 58.861531 Z"
           id="path14" />
      </g>
      <g
         id="g19"
         transform="matrix(0.67108619,0,0,0.67108619,172.01694,-44.988618)">
        <ellipse
           class="cls-1"
           cx="97.940002"
           cy="316.35999"
           rx="23.65"
           ry="72.529999"
           transform="rotate(-45,97.94973,316.35789)"
           id="ellipse14" />
        <ellipse
           class="cls-1"
           cx="58.25"
           cy="356.10999"
           rx="17.379999"
           ry="53.299999"
           transform="rotate(-45,58.251966,356.10125)"
           id="ellipse15" />
        <ellipse
           class="cls-1"
           cx="26.389999"
           cy="387.92001"
           rx="11.56"
           ry="35.470001"
           transform="rotate(-45,26.391085,387.91845)"
           id="ellipse16" />
        <ellipse
           class="cls-1"
           cx="305.29999"
           cy="109.06"
           rx="17.41"
           ry="70.610001"
           transform="rotate(-45,305.2952,109.06259)"
           id="ellipse17" />
        <path
           class="cls-2"
           d="m 106.37,315.82 c -2.02,0 -4.04,-0.77 -5.58,-2.31 -3.08,-3.08 -3.07,-8.07 0,-11.15 l 26.95,-26.91 c 4.83,4.83 8.31,8.31 11.15,11.15 l -26.96,26.92 c -1.54,1.54 -3.55,2.31 -5.57,2.31 z"
           id="path17" />
        <path
           class="cls-2"
           d="m 392.99,21.43 v 0 c 0,0 -0.03,-0.03 -0.04,-0.04 -0.01,-0.01 -0.02,-0.02 -0.03,-0.04 v 0 c -36.4,-36.28 -128.19,-33.86 -221.99,67.05 -4.38,4.71 -8.86,7.1 -13.33,7.11 -3.35,0 -6.61,-0.05 -9.79,-0.11 -20.8,-0.35 -40.44,-0.67 -63.74,15.35 -11.39,7.83 -20.06,15.81 -27.29,25.11 L 23.3,186.74 c -0.57,1.1 -0.75,2.22 -0.68,3.33 l 0.07,0.8 c 1.11,6.15 10.29,11.84 14.14,12.4 l 48.65,6.17 c 7.01,1.02 8.79,1.69 12.36,6.8 1.81,6.09 2.02,7.34 2.05,13.96 -0.57,12.61 10.77,27.02 18.13,35.5 l 16.03,16.03 -6.31,-6.31 5.72,-5.72 c 0,0 0.07,-0.1 0.11,-0.14 l 75.02,-74.94 c 3.08,-3.08 8.07,-3.08 11.15,0 3.08,3.08 3.07,8.07 0,11.15 l -64.72,64.65 0.02,0.02 -16.13,16.13 9.74,9.74 c 8.48,7.35 22.9,18.69 35.5,18.13 6.62,0.04 7.87,0.24 13.96,2.05 5.11,3.57 5.78,5.35 6.8,12.36 l 6.18,48.65 c 0.56,3.85 6.25,13.03 12.4,14.14 0,0.01 0.8,0.08 0.8,0.07 1.11,0.07 2.23,-0.11 3.33,-0.68 l 50.87,-33.48 c 9.3,-7.23 17.28,-15.9 25.11,-27.29 16.02,-23.3 15.69,-42.94 15.35,-63.74 -0.05,-3.18 -0.11,-6.44 -0.11,-9.79 0,-4.47 2.4,-8.95 7.11,-13.33 C 426.86,149.59 429.29,57.81 393,21.41 Z M 281.97,132.39 C 256.58,106.77 235.74,74.67 236.11,52.15 287.59,14.1 348.61,2.82 380.27,32.25 c 0.31,0.29 0.59,0.6 0.89,0.89 l 0.03,0.03 0.03,0.03 c 0.3,0.3 0.6,0.57 0.89,0.89 29.43,31.66 18.15,92.67 -19.9,144.16 -22.52,0.37 -54.62,-20.48 -80.24,-45.86 z"
           id="path18" />
        <path
           class="cls-2"
           d="m 284.6,51.75 c -2.94,0 -5.77,-1.66 -7.12,-4.49 -1.88,-3.93 -0.21,-8.64 3.72,-10.51 22.57,-10.77 47.57,-14.57 70.41,-10.7 4.29,0.73 7.18,4.8 6.45,9.09 -0.73,4.29 -4.8,7.19 -9.09,6.45 -19.66,-3.33 -41.32,0 -60.98,9.38 -1.1,0.52 -2.25,0.77 -3.39,0.77 z"
           id="path19" />
      </g>
    </g>
  </g>
</svg>
