<?xml version="1.0" encoding="UTF-8"?>
<svg id="Layer_2" data-name="Layer 2" xmlns="http://www.w3.org/2000/svg" viewBox="0 0 1551.9 432.41">
  <defs>
    <style>
      .cls-1 {
        fill: #ff7e56;
      }

      .cls-2 {
        fill: #fff;
      }
    </style>
  </defs>
  <g id="Graphics">
    <g>
      <g>
        <path class="cls-1" d="M682.65,161.32c-20.9,11.17-44.28,16.75-70.12,16.75-13.09,0-25.09-2.12-36.02-6.34-10.93-4.23-20.34-10.21-28.24-17.95-7.9-7.73-14.08-17.03-18.55-27.88-4.47-10.85-6.7-22.89-6.7-36.14s2.23-25.89,6.7-36.98c4.47-11.09,10.65-20.54,18.55-28.36,7.9-7.82,17.31-13.84,28.24-18.07C587.43,2.13,599.44,0,612.52,0s25.05,1.56,36.38,4.67c11.33,3.11,21.46,8.66,30.4,16.63l-22.26,22.5c-5.43-5.27-12.01-9.34-19.75-12.21-7.74-2.87-15.92-4.31-24.53-4.31s-16.72,1.56-23.82,4.67c-7.1,3.11-13.21,7.42-18.31,12.92-5.11,5.5-9.06,11.93-11.85,19.27-2.79,7.34-4.19,15.24-4.19,23.7,0,9.09,1.39,17.47,4.19,25.13,2.79,7.66,6.74,14.28,11.85,19.86,5.1,5.59,11.21,9.97,18.31,13.16,7.1,3.19,15.04,4.79,23.82,4.79,7.66,0,14.88-.72,21.66-2.15,6.78-1.43,12.8-3.67,18.07-6.7v-39.97h-34.7v-27.28h64.86v86.64Z"/>
        <path class="cls-1" d="M709.69,19.88c0-4.63,1.71-8.66,5.15-12.09,3.43-3.43,7.78-5.15,13.04-5.15s9.69,1.64,13.28,4.91c3.59,3.27,5.39,7.38,5.39,12.33s-1.79,9.06-5.39,12.33c-3.59,3.27-8.02,4.91-13.28,4.91s-9.61-1.71-13.04-5.15c-3.43-3.43-5.15-7.46-5.15-12.09ZM713.76,58.88h28.72v114.88h-28.72V58.88Z"/>
        <path class="cls-1" d="M759.71,83.3v-24.41h23.7V25.62h28.72v33.27h31.59v24.41h-31.59v50.26c0,5.74,1.08,10.29,3.23,13.64,2.15,3.35,6.42,5.02,12.8,5.02,2.55,0,5.34-.27,8.38-.84,3.03-.56,5.42-1.47,7.18-2.75v24.17c-3.03,1.44-6.74,2.43-11.13,2.99-4.39.56-8.26.84-11.61.84-7.66,0-13.92-.84-18.79-2.51-4.87-1.67-8.7-4.23-11.49-7.66-2.79-3.43-4.71-7.7-5.75-12.8-1.04-5.1-1.55-11.01-1.55-17.71v-52.65h-23.7Z"/>
        <path class="cls-1" d="M857.36,89.76c0-13.56,2.23-25.89,6.7-36.98,4.47-11.09,10.65-20.54,18.55-28.36,7.9-7.82,17.31-13.84,28.24-18.07C921.78,2.13,933.79,0,946.87,0c13.24-.15,25.37,1.79,36.38,5.87,11.01,4.07,20.5,10.01,28.48,17.83,7.98,7.82,14.2,17.23,18.67,28.24,4.46,11.01,6.7,23.3,6.7,36.86s-2.24,25.29-6.7,36.14c-4.47,10.85-10.69,20.19-18.67,28-7.98,7.82-17.47,13.92-28.48,18.31-11.01,4.39-23.14,6.66-36.38,6.82-13.09,0-25.09-2.12-36.02-6.34-10.93-4.23-20.34-10.21-28.24-17.95-7.9-7.73-14.08-17.03-18.55-27.88-4.47-10.85-6.7-22.89-6.7-36.14ZM888.95,87.85c0,9.09,1.39,17.47,4.19,25.13,2.79,7.66,6.74,14.28,11.85,19.86,5.1,5.59,11.21,9.97,18.31,13.16,7.1,3.19,15.04,4.79,23.82,4.79s16.75-1.59,23.93-4.79c7.18-3.19,13.32-7.58,18.43-13.16,5.1-5.58,9.06-12.21,11.85-19.86,2.79-7.66,4.19-16.04,4.19-25.13,0-8.46-1.4-16.35-4.19-23.7-2.79-7.34-6.74-13.76-11.85-19.27-5.11-5.5-11.25-9.81-18.43-12.92-7.18-3.11-15.16-4.67-23.93-4.67s-16.72,1.56-23.82,4.67c-7.1,3.11-13.21,7.42-18.31,12.92-5.11,5.5-9.06,11.93-11.85,19.27-2.79,7.34-4.19,15.24-4.19,23.7Z"/>
        <path class="cls-1" d="M1060.79,58.88h27.28v17.23h.48c4.15-7.02,9.73-12.12,16.75-15.31,7.02-3.19,14.6-4.79,22.74-4.79,8.77,0,16.67,1.55,23.69,4.67,7.02,3.11,13,7.38,17.95,12.8,4.94,5.43,8.7,11.81,11.25,19.14,2.55,7.34,3.83,15.24,3.83,23.7s-1.36,16.36-4.07,23.7c-2.72,7.34-6.5,13.73-11.37,19.15-4.87,5.43-10.73,9.69-17.59,12.8-6.86,3.11-14.36,4.67-22.5,4.67-5.43,0-10.21-.56-14.36-1.68-4.15-1.12-7.82-2.55-11.01-4.31-3.19-1.75-5.91-3.63-8.14-5.62-2.24-1.99-4.07-3.95-5.5-5.86h-.72v69.17h-28.72V58.88ZM1156.05,116.33c0-4.46-.76-8.77-2.27-12.92-1.52-4.15-3.75-7.82-6.7-11.01-2.95-3.19-6.5-5.75-10.65-7.66-4.15-1.91-8.86-2.87-14.12-2.87s-9.97.96-14.12,2.87c-4.15,1.91-7.7,4.47-10.65,7.66-2.95,3.19-5.19,6.86-6.7,11.01-1.52,4.15-2.27,8.46-2.27,12.92s.76,8.78,2.27,12.92c1.51,4.15,3.75,7.82,6.7,11.01,2.95,3.19,6.5,5.74,10.65,7.66,4.15,1.91,8.85,2.87,14.12,2.87s9.97-.96,14.12-2.87c4.15-1.91,7.7-4.46,10.65-7.66,2.95-3.19,5.18-6.86,6.7-11.01,1.52-4.15,2.27-8.45,2.27-12.92Z"/>
        <path class="cls-1" d="M1270.45,90.72c-5.59-7.82-13.09-11.73-22.5-11.73-3.83,0-7.58.96-11.25,2.87-3.67,1.91-5.5,5.02-5.5,9.33,0,3.51,1.51,6.07,4.55,7.66,3.03,1.6,6.86,2.95,11.49,4.07,4.63,1.12,9.61,2.27,14.96,3.47,5.34,1.19,10.33,3.03,14.96,5.5,4.63,2.48,8.46,5.87,11.49,10.17,3.03,4.31,4.55,10.21,4.55,17.71,0,6.86-1.48,12.65-4.43,17.35-2.95,4.71-6.78,8.5-11.49,11.37-4.71,2.87-10.01,4.95-15.92,6.23-5.91,1.27-11.81,1.91-17.71,1.91-8.94,0-17.15-1.28-24.65-3.83-7.5-2.55-14.2-7.18-20.1-13.88l19.15-17.95c3.67,4.15,7.62,7.54,11.85,10.17,4.22,2.63,9.37,3.95,15.44,3.95,2.07,0,4.23-.24,6.46-.72,2.23-.48,4.31-1.28,6.22-2.39,1.91-1.11,3.47-2.51,4.67-4.19,1.2-1.67,1.79-3.63,1.79-5.86,0-3.99-1.52-6.94-4.55-8.86-3.03-1.91-6.86-3.47-11.49-4.67-4.63-1.19-9.61-2.31-14.96-3.35-5.35-1.04-10.33-2.71-14.96-5.03-4.63-2.31-8.46-5.54-11.49-9.69-3.03-4.15-4.55-9.89-4.55-17.23,0-6.38,1.32-11.93,3.95-16.63,2.63-4.7,6.1-8.57,10.41-11.61,4.31-3.03,9.25-5.27,14.84-6.7,5.58-1.44,11.25-2.15,16.99-2.15,7.66,0,15.24,1.31,22.74,3.95,7.5,2.63,13.56,7.14,18.19,13.52l-19.15,17.23Z"/>
        <path class="cls-1" d="M532.11,260.08h56.96c8.14,0,16,.8,23.58,2.39,7.58,1.6,14.24,4.27,19.98,8.02,5.74,3.75,10.33,8.78,13.76,15.08,3.43,6.3,5.15,14.16,5.15,23.58,0,10.69-1.84,19.31-5.51,25.85-3.67,6.54-8.62,11.61-14.84,15.2-6.22,3.59-13.44,6.02-21.66,7.3-8.22,1.28-16.8,1.91-25.73,1.91h-21.54v70.13h-30.16v-169.45ZM580.45,333.56c4.31,0,8.77-.15,13.4-.48,4.63-.32,8.89-1.28,12.8-2.87,3.91-1.59,7.1-3.99,9.57-7.18,2.47-3.19,3.71-7.66,3.71-13.4,0-5.27-1.12-9.46-3.35-12.56-2.24-3.11-5.11-5.51-8.62-7.18-3.51-1.67-7.42-2.75-11.73-3.23-4.31-.48-8.46-.72-12.45-.72h-21.54v47.63h18.19Z"/>
        <path class="cls-1" d="M673.31,314.65h28.72v18.19h.48c3.19-6.7,7.74-11.88,13.64-15.56,5.9-3.67,12.68-5.5,20.34-5.5,1.75,0,3.47.16,5.15.48,1.67.32,3.39.72,5.15,1.19v27.76c-2.39-.64-4.75-1.16-7.06-1.55-2.31-.4-4.59-.6-6.82-.6-6.7,0-12.09,1.24-16.16,3.71-4.07,2.48-7.18,5.31-9.33,8.5-2.15,3.19-3.59,6.39-4.31,9.58-.72,3.19-1.08,5.58-1.08,7.18v61.51h-28.72v-114.88Z"/>
        <path class="cls-1" d="M753.97,372.09c0-9.09,1.63-17.35,4.91-24.77,3.27-7.42,7.7-13.76,13.28-19.03,5.58-5.27,12.21-9.34,19.86-12.21,7.66-2.87,15.8-4.31,24.41-4.31s16.75,1.43,24.41,4.31c7.66,2.87,14.28,6.94,19.86,12.21,5.58,5.26,10.01,11.61,13.28,19.03,3.27,7.42,4.91,15.68,4.91,24.77s-1.64,17.35-4.91,24.77c-3.27,7.42-7.7,13.76-13.28,19.03-5.59,5.27-12.21,9.34-19.86,12.21-7.66,2.87-15.8,4.31-24.41,4.31s-16.75-1.44-24.41-4.31c-7.66-2.87-14.28-6.94-19.86-12.21-5.59-5.26-10.01-11.61-13.28-19.03-3.27-7.42-4.91-15.67-4.91-24.77ZM782.69,372.09c0,4.47.76,8.78,2.27,12.92,1.51,4.15,3.75,7.82,6.7,11.01,2.95,3.19,6.5,5.74,10.65,7.66,4.15,1.91,8.86,2.87,14.12,2.87s9.97-.96,14.12-2.87c4.15-1.91,7.7-4.46,10.65-7.66,2.95-3.19,5.18-6.86,6.7-11.01,1.51-4.15,2.27-8.45,2.27-12.92s-.76-8.77-2.27-12.92c-1.52-4.15-3.75-7.82-6.7-11.01-2.95-3.19-6.5-5.75-10.65-7.66-4.15-1.91-8.85-2.87-14.12-2.87s-9.97.96-14.12,2.87c-4.15,1.91-7.7,4.47-10.65,7.66-2.95,3.19-5.19,6.86-6.7,11.01-1.52,4.15-2.27,8.46-2.27,12.92Z"/>
        <path class="cls-1" d="M902.11,314.65h27.28v17.95h.48c2.55-5.42,6.66-10.25,12.33-14.48,5.66-4.23,13.28-6.34,22.86-6.34,18.03,0,29.99,7.1,35.9,21.3,4.15-7.34,9.33-12.72,15.56-16.16,6.22-3.43,13.64-5.14,22.26-5.14,7.66,0,14.12,1.28,19.39,3.83,5.27,2.55,9.53,6.06,12.8,10.53,3.27,4.47,5.62,9.69,7.06,15.68,1.44,5.98,2.15,12.41,2.15,19.26v68.45h-28.72v-65.1c0-3.51-.32-6.9-.96-10.17-.64-3.27-1.76-6.14-3.35-8.62-1.6-2.47-3.75-4.43-6.46-5.86-2.72-1.44-6.22-2.15-10.53-2.15s-8.26.84-11.37,2.51c-3.11,1.68-5.67,3.91-7.66,6.7-2,2.79-3.43,5.98-4.31,9.58-.88,3.59-1.31,7.22-1.31,10.89v62.23h-28.72v-68.45c0-7.18-1.52-12.88-4.55-17.11-3.03-4.23-8.06-6.34-15.08-6.34-4.79,0-8.82.8-12.09,2.39-3.27,1.6-5.98,3.75-8.14,6.46-2.15,2.72-3.71,5.83-4.67,9.34-.96,3.51-1.44,7.18-1.44,11.01v62.7h-28.72v-114.88Z"/>
        <path class="cls-1" d="M1103.4,372.09c0-9.09,1.63-17.35,4.91-24.77,3.27-7.42,7.7-13.76,13.28-19.03,5.58-5.27,12.21-9.34,19.86-12.21,7.66-2.87,15.8-4.31,24.41-4.31s16.75,1.43,24.41,4.31c7.66,2.87,14.28,6.94,19.86,12.21,5.58,5.26,10.01,11.61,13.28,19.03,3.27,7.42,4.91,15.68,4.91,24.77s-1.64,17.35-4.91,24.77c-3.27,7.42-7.7,13.76-13.28,19.03-5.59,5.27-12.21,9.34-19.86,12.21-7.66,2.87-15.8,4.31-24.41,4.31s-16.75-1.44-24.41-4.31c-7.66-2.87-14.28-6.94-19.86-12.21-5.59-5.26-10.01-11.61-13.28-19.03-3.27-7.42-4.91-15.67-4.91-24.77ZM1132.12,372.09c0,4.47.76,8.78,2.27,12.92,1.51,4.15,3.75,7.82,6.7,11.01,2.95,3.19,6.5,5.74,10.65,7.66,4.15,1.91,8.86,2.87,14.12,2.87s9.97-.96,14.12-2.87c4.15-1.91,7.7-4.46,10.65-7.66,2.95-3.19,5.18-6.86,6.7-11.01,1.51-4.15,2.27-8.45,2.27-12.92s-.76-8.77-2.27-12.92c-1.52-4.15-3.75-7.82-6.7-11.01-2.95-3.19-6.5-5.75-10.65-7.66-4.15-1.91-8.85-2.87-14.12-2.87s-9.97.96-14.12,2.87c-4.15,1.91-7.7,4.47-10.65,7.66-2.95,3.19-5.19,6.86-6.7,11.01-1.52,4.15-2.27,8.46-2.27,12.92Z"/>
        <path class="cls-1" d="M1239.33,339.07v-24.41h23.7v-33.27h28.72v33.27h31.59v24.41h-31.59v50.26c0,5.74,1.08,10.29,3.23,13.64,2.15,3.35,6.42,5.02,12.8,5.02,2.55,0,5.34-.27,8.38-.84,3.03-.56,5.42-1.47,7.18-2.75v24.17c-3.03,1.44-6.74,2.43-11.13,2.99-4.39.56-8.26.84-11.61.84-7.66,0-13.92-.84-18.79-2.51-4.87-1.67-8.7-4.23-11.49-7.66-2.79-3.43-4.71-7.7-5.75-12.8-1.04-5.1-1.55-11.01-1.55-17.71v-52.65h-23.7Z"/>
        <path class="cls-1" d="M1366.42,382.14c.96,8.62,4.31,15.32,10.05,20.11,5.75,4.79,12.68,7.18,20.82,7.18,7.18,0,13.2-1.48,18.07-4.43,4.87-2.95,9.13-6.66,12.8-11.13l20.58,15.56c-6.7,8.3-14.2,14.2-22.5,17.71-8.3,3.51-16.99,5.27-26.09,5.27-8.62,0-16.75-1.44-24.41-4.31-7.66-2.87-14.28-6.94-19.86-12.21-5.59-5.26-10.01-11.61-13.28-19.03-3.27-7.42-4.91-15.67-4.91-24.77s1.63-17.35,4.91-24.77c3.27-7.42,7.7-13.76,13.28-19.03,5.58-5.27,12.21-9.34,19.86-12.21,7.66-2.87,15.8-4.31,24.41-4.31,7.98,0,15.28,1.4,21.9,4.19,6.62,2.79,12.28,6.82,16.99,12.09,4.7,5.27,8.38,11.77,11.01,19.51,2.63,7.74,3.95,16.63,3.95,26.68v7.9h-87.6ZM1425.3,360.61c-.16-8.46-2.79-15.12-7.9-19.99-5.11-4.86-12.21-7.3-21.3-7.3-8.62,0-15.44,2.48-20.46,7.42-5.03,4.95-8.1,11.57-9.21,19.87h58.88Z"/>
        <path class="cls-1" d="M1478.43,314.65h28.72v18.19h.48c3.19-6.7,7.74-11.88,13.64-15.56,5.9-3.67,12.68-5.5,20.34-5.5,1.75,0,3.47.16,5.15.48,1.67.32,3.39.72,5.15,1.19v27.76c-2.39-.64-4.75-1.16-7.06-1.55-2.31-.4-4.59-.6-6.82-.6-6.7,0-12.09,1.24-16.16,3.71-4.07,2.48-7.18,5.31-9.33,8.5-2.15,3.19-3.59,6.39-4.31,9.58-.72,3.19-1.08,5.58-1.08,7.18v61.51h-28.72v-114.88Z"/>
      </g>
      <g>
        <ellipse class="cls-1" cx="97.94" cy="316.36" rx="23.65" ry="72.53" transform="translate(-195.01 161.92) rotate(-45)"/>
        <ellipse class="cls-1" cx="58.25" cy="356.11" rx="17.38" ry="53.3" transform="translate(-234.74 145.49) rotate(-45)"/>
        <ellipse class="cls-1" cx="26.39" cy="387.92" rx="11.56" ry="35.47" transform="translate(-266.57 132.28) rotate(-45)"/>
        <ellipse class="cls-1" cx="305.3" cy="109.06" rx="17.41" ry="70.61" transform="translate(12.3 247.82) rotate(-45)"/>
        <path class="cls-2" d="M106.37,315.82c-2.02,0-4.04-.77-5.58-2.31-3.08-3.08-3.07-8.07,0-11.15l26.95-26.91c4.83,4.83,8.31,8.31,11.15,11.15l-26.96,26.92c-1.54,1.54-3.55,2.31-5.57,2.31Z"/>
        <path class="cls-2" d="M392.99,21.43h0s-.03-.03-.04-.04c-.01-.01-.02-.02-.03-.04h0c-36.4-36.28-128.19-33.86-221.99,67.05-4.38,4.71-8.86,7.1-13.33,7.11-3.35,0-6.61-.05-9.79-.11-20.8-.35-40.44-.67-63.74,15.35-11.39,7.83-20.06,15.81-27.29,25.11l-33.48,50.88c-.57,1.1-.75,2.22-.68,3.33l.07.8c1.11,6.15,10.29,11.84,14.14,12.4l48.65,6.17c7.01,1.02,8.79,1.69,12.36,6.8,1.81,6.09,2.02,7.34,2.05,13.96-.57,12.61,10.77,27.02,18.13,35.5l16.03,16.03-6.31-6.31,5.72-5.72s.07-.1.11-.14l75.02-74.94c3.08-3.08,8.07-3.08,11.15,0,3.08,3.08,3.07,8.07,0,11.15l-64.72,64.65.02.02-16.13,16.13,9.74,9.74c8.48,7.35,22.9,18.69,35.5,18.13,6.62.04,7.87.24,13.96,2.05,5.11,3.57,5.78,5.35,6.8,12.36l6.18,48.65c.56,3.85,6.25,13.03,12.4,14.14,0,.01.8.08.8.07,1.11.07,2.23-.11,3.33-.68l50.87-33.48c9.3-7.23,17.28-15.9,25.11-27.29,16.02-23.3,15.69-42.94,15.35-63.74-.05-3.18-.11-6.44-.11-9.79,0-4.47,2.4-8.95,7.11-13.33,100.91-93.81,103.34-185.59,67.05-221.99ZM281.97,132.39c-25.39-25.62-46.23-57.72-45.86-80.24,51.48-38.05,112.5-49.33,144.16-19.9.31.29.59.6.89.89l.03.03.03.03c.3.3.6.57.89.89,29.43,31.66,18.15,92.67-19.9,144.16-22.52.37-54.62-20.48-80.24-45.86Z"/>
        <path class="cls-2" d="M284.6,51.75c-2.94,0-5.77-1.66-7.12-4.49-1.88-3.93-.21-8.64,3.72-10.51,22.57-10.77,47.57-14.57,70.41-10.7,4.29.73,7.18,4.8,6.45,9.09-.73,4.29-4.8,7.19-9.09,6.45-19.66-3.33-41.32,0-60.98,9.38-1.1.52-2.25.77-3.39.77Z"/>
      </g>
    </g>
  </g>
</svg>