<?xml version="1.0" encoding="UTF-8"?>
<svg id="Layer_2" data-name="Layer 2" xmlns="http://www.w3.org/2000/svg" viewBox="0 0 556.73 556.66">
  <defs>
    <style>
      .cls-1 {
        fill: #ff7e56;
      }

      .cls-2 {
        fill: #fff;
      }
    </style>
  </defs>
  <g id="Graphics">
    <g>
      <ellipse class="cls-1" cx="131.6" cy="425.06" rx="31.77" ry="97.45" transform="translate(-262.02 217.55) rotate(-45)"/>
      <ellipse class="cls-1" cx="78.27" cy="478.47" rx="23.35" ry="71.61" transform="translate(-315.4 195.48) rotate(-45)"/>
      <ellipse class="cls-1" cx="35.46" cy="521.21" rx="15.54" ry="47.66" transform="translate(-358.16 177.73) rotate(-45)"/>
      <ellipse class="cls-1" cx="410.21" cy="146.52" rx="23.39" ry="94.88" transform="translate(16.54 332.98) rotate(-45)"/>
      <path class="cls-2" d="M142.92,424.33c-2.71,0-5.43-1.04-7.49-3.11-4.14-4.14-4.13-10.85.01-14.98l36.21-36.16c6.48,6.48,11.17,11.17,14.98,14.98l-36.22,36.16c-2.07,2.07-4.78,3.1-7.48,3.1Z"/>
      <path class="cls-2" d="M528.04,28.79h0s-.03-.03-.05-.05c-.02-.02-.03-.03-.04-.05h0c-48.91-48.75-172.23-45.49-298.28,90.09-5.88,6.33-11.91,9.54-17.91,9.55-4.51,0-8.88-.07-13.16-.14-27.94-.47-54.33-.9-85.64,20.62-15.3,10.53-26.96,21.25-36.67,33.74l-44.99,68.36c-.77,1.48-1.01,2.99-.91,4.48l.1,1.08c1.49,8.26,13.83,15.9,19,16.66l65.37,8.3c9.41,1.36,11.81,2.27,16.61,9.13,2.43,8.18,2.71,9.86,2.76,18.75-.76,16.94,14.48,36.31,24.36,47.7l21.54,21.54-8.48-8.48,7.69-7.69c.06-.06.09-.13.15-.19l100.79-100.69c4.14-4.14,10.84-4.13,14.98,0,4.14,4.14,4.13,10.85,0,14.98l-86.96,86.87.02.02-21.68,21.68,13.09,13.09c11.39,9.88,30.77,25.12,47.7,24.36,8.89.05,10.57.33,18.75,2.76,6.87,4.8,7.77,7.19,9.13,16.61l8.3,65.37c.76,5.17,8.4,17.5,16.66,19,0,.01,1.08.11,1.08.1,1.49.09,3-.14,4.48-.91l68.36-44.99c12.49-9.71,23.21-21.37,33.74-36.67,21.53-31.3,21.09-57.7,20.62-85.64-.07-4.28-.15-8.65-.14-13.16,0-6,3.22-12.03,9.55-17.91,135.58-126.04,138.85-249.36,90.09-298.28ZM378.87,177.87c-34.11-34.42-62.12-77.55-61.62-107.81C386.42,18.93,468.4,3.77,510.94,43.32c.42.39.79.8,1.19,1.2l.05.05.05.05c.4.4.81.77,1.2,1.19,39.54,42.54,24.38,124.52-26.74,193.7-30.26.5-73.39-27.52-107.81-61.62Z"/>
      <path class="cls-2" d="M382.4,69.52c-3.96,0-7.75-2.22-9.57-6.03-2.52-5.28-.28-11.6,4.99-14.12,30.32-14.47,63.92-19.58,94.61-14.38,5.77.98,9.65,6.44,8.67,12.21-.98,5.77-6.44,9.66-12.21,8.67-26.42-4.48-55.52,0-81.94,12.61-1.47.7-3.03,1.04-4.56,1.04Z"/>
    </g>
  </g>
</svg>