<?xml version="1.0" encoding="UTF-8" standalone="no"?>
<svg
   id="Layer_2"
   data-name="Layer 2"
   viewBox="0 0 608.99323 608.93867"
   version="1.1"
   width="608.99323"
   height="608.93866"
   xmlns:xlink="http://www.w3.org/1999/xlink"
   xmlns="http://www.w3.org/2000/svg"
   xmlns:svg="http://www.w3.org/2000/svg">
  <defs
     id="defs1">
    <style
       id="style1">
      .cls-1 {
        fill: #ff7e56;
      }

      .cls-2 {
        fill: #00254a;
      }
    </style>
  </defs>
  <g
     id="Graphics"
     transform="translate(25.981612,26.021612)">
    <g
       id="g6">
      <path
         xlink:href="#ellipse6"
         id="path11"
         d="M 445.0918,-25.996094 C 376.59948,-24.872037 293.04938,12.567428 210.72461,101.12695 a 26.019184,26.019184 0 0 0 -0.006,0.006 c -0.98351,1.05865 -1.01567,1.05452 -1.19336,1.22657 -3.45733,-0.0183 -6.90978,-0.0562 -10.39844,-0.11329 h -0.0117 c -27.96742,-0.46992 -63.77155,-0.2791 -100.843746,25.20508 a 26.019184,26.019184 0 0 0 -0.0059,0.004 c -17.027677,11.71141 -30.998861,24.4584 -42.476563,39.20703 a 26.019184,26.019184 0 0 0 -1.201171,1.67578 L 9.578125,236.72656 a 26.019184,26.019184 0 0 0 -1.3476562,2.29492 c -3.0928914,5.94476 -4.15408,12.79166 -3.7890626,18.23047 a 26.019184,26.019184 0 0 0 0.052734,0.64649 l 0.099609,1.08008 a 26.019184,26.019184 0 0 0 0.3027344,2.23046 c 2.7233639,15.09735 11.0299406,21.84908 17.7734376,27.08204 6.743496,5.23295 10.981599,8.93536 23.046875,10.70898 a 26.019184,26.019184 0 0 0 0.507812,0.0684 l 62.031251,7.87305 c -0.0199,0.85401 -0.0125,0.7996 -0.002,2.66601 l 0.0254,-1.3125 c -0.54091,12.06369 1.96505,22.34513 5.82617,31.20899 -2.5883,-1.39033 -5.20098,-2.92313 -7.75391,-4.11524 -9.301559,-4.34343 -18.32429,-7.51782 -28.466794,-8.42578 -10.142504,-0.90796 -23.564416,1.01118 -33.527344,10.93359 a 26.019184,26.019184 0 0 0 -0.03516,0.0352 c -10.727493,10.72628 -12.127412,25.18097 -10.740235,35.9043 1.192881,9.22135 4.209854,17.64664 8.248047,26.18945 -1.051444,-0.13293 -1.996987,-0.41788 -3.085937,-0.5 -8.735229,-0.6589 -20.669196,1.27574 -29.5058597,10.11523 -9.90341297,9.90496 -11.0255763,23.06185 -9.84960942,32.14649 0.86712341,6.69874 2.97722782,12.57331 5.50585932,18.35547 -6.822746,0.40426 -15.0082272,2.68246 -21.5292972,9.20508 -9.138401,9.1404 -10.011655,21.0935 -9.033203,28.66015 0.978453,7.56666 3.398511,13.38762 6.337891,19.17188 5.878759,11.56851 14.4865877,22.73875 25.4179686,33.66992 10.9309364,10.93074 22.1017384,19.53767 33.6699214,25.41601 5.784092,2.93918 11.603399,5.35962 19.169922,6.3379 7.566524,0.97827 19.520103,0.10485 28.660157,-9.03321 6.610914,-6.60938 8.82677,-14.65749 9.216796,-21.48828 5.798883,2.54017 11.689113,4.65954 18.408203,5.5293 9.08339,1.17581 22.23807,0.0539 32.14258,-9.84571 l 0.002,-0.002 c 9.90631,-9.9018 11.03435,-23.06105 9.85938,-32.14648 -0.0181,-0.13968 -0.0553,-0.26529 -0.0742,-0.4043 8.46141,3.98096 16.81545,6.95448 25.95117,8.13672 10.72297,1.38764 25.17495,-0.008 35.90234,-10.73438 a 26.019184,26.019184 0 0 0 0.0137,-0.0137 c 9.9381,-9.95061 11.8731,-23.38274 10.9707,-33.52929 -0.9024,-10.14656 -4.07258,-19.17185 -8.41406,-28.47461 -1.18606,-2.54144 -2.71316,-5.14227 -4.09571,-7.71875 8.86596,3.86493 19.15321,6.37328 31.22461,5.83203 l -1.3125,0.0254 c 1.86565,0.0105 1.81033,0.0179 2.66406,-0.002 l 7.87305,62.04102 a 26.019184,26.019184 0 0 0 0.0703,0.50781 c 1.77123,12.04902 5.46749,16.29575 10.70118,23.04297 4.98578,6.42762 11.45178,14.21685 25.09375,17.29688 0.2429,0.072 0.53699,0.17399 0.65234,0.20117 0.69727,0.16427 0.7983,0.16546 1.07422,0.21289 0.0977,0.0182 0.17702,0.0487 0.27539,0.0664 l -0.0117,-0.0137 c 0.10299,0.0161 0.40765,0.084 0.49219,0.0977 0.6287,0.10145 0.80359,0.11699 0.97851,0.13867 0.34985,0.0434 0.47878,0.0558 0.61719,0.0703 0.27682,0.029 0.47317,0.0486 0.6875,0.0684 0.21433,0.0198 0.41131,0.0364 0.68945,0.0586 0.13908,0.0111 0.26726,0.0234 0.62305,0.0449 0.0104,6.3e-4 0.0482,0.001 0.0586,0.002 0.16866,0.0107 0.33208,0.0249 0.94727,0.0391 0.32662,0.008 0.65517,0.0385 1.93945,-0.0273 0.0423,-0.002 0.18579,-0.0258 0.24805,-0.0312 4.65122,-0.17071 10.05438,-1.25392 14.91211,-3.78125 a 26.019184,26.019184 0 0 0 2.29492,-1.34766 l 68.38867,-45.00976 a 26.019184,26.019184 0 0 0 1.66797,-1.19531 c 14.76873,-11.48415 27.5078,-25.46108 39.21485,-42.48243 a 26.019184,26.019184 0 0 0 0,-0.002 c 25.49817,-37.07533 25.6788,-72.88642 25.20898,-100.84765 v -0.004 c -0.0579,-3.54012 -0.0982,-6.97525 -0.11328,-10.4043 0.17045,-0.17728 0.1605,-0.20546 1.21094,-1.17969 a 26.019184,26.019184 0 0 0 0.0215,-0.0215 C 526.71112,280.41537 564.68586,213.82878 577.77734,154.69922 590.80679,95.849852 579.11178,43.367151 547.14648,10.912109 a 26.019184,26.019184 0 0 0 -0.10351,-0.144531 l -0.0488,-0.05078 a 26.019184,26.019184 0 0 0 -0.35352,-0.359375 c -0.003,-0.0027 0.0648,0.07642 0.0645,0.07617 l -0.008,0.02148 a 26.019184,26.019184 0 0 0 -0.13086,-0.18164 C 522.25238,-13.960985 486.18671,-26.670518 445.0918,-25.996094 Z m 102.19726,37.107422 c 0.61961,0.683047 1.80532,2.247849 3.1836,4.464844 a 26.019184,26.019184 0 0 0 -3.1836,-4.464844 z"
         style="fill:#ffffff" />
      <ellipse
         class="cls-1"
         cx="131.66"
         cy="425.26999"
         rx="31.790001"
         ry="97.5"
         transform="rotate(-45,131.66386,425.27304)"
         id="ellipse1" />
      <ellipse
         class="cls-1"
         cx="78.300003"
         cy="478.69"
         rx="23.360001"
         ry="71.650002"
         transform="rotate(-45,78.310944,478.69254)"
         id="ellipse2" />
      <ellipse
         class="cls-1"
         cx="35.470001"
         cy="521.46002"
         rx="15.55"
         ry="47.68"
         transform="rotate(-45,35.470657,521.44757)"
         id="ellipse3" />
      <ellipse
         class="cls-1"
         cx="410.41"
         cy="146.59"
         rx="23.4"
         ry="94.919998"
         transform="rotate(-45,410.41055,146.59238)"
         id="ellipse4" />
      <path
         class="cls-2"
         d="m 142.99,424.54 c -2.71,0 -5.43,-1.04 -7.5,-3.11 -4.14,-4.14 -4.13,-10.85 0.01,-14.99 l 36.23,-36.17 c 6.49,6.49 11.18,11.18 14.99,14.99 l -36.24,36.18 c -2.07,2.07 -4.78,3.1 -7.49,3.1 z"
         id="path4" />
      <path
         class="cls-2"
         d="m 528.29,28.8 v 0 c 0,0 -0.03,-0.03 -0.05,-0.05 -0.02,-0.02 -0.03,-0.03 -0.04,-0.05 v 0 c -48.94,-48.78 -172.32,-45.51 -298.42,90.14 -5.89,6.34 -11.91,9.55 -17.92,9.56 -4.51,0 -8.89,-0.07 -13.17,-0.14 -27.96,-0.47 -54.36,-0.9 -85.68,20.63 -15.31,10.53 -26.97,21.26 -36.69,33.75 l -45.01,68.39 c -0.77,1.48 -1.01,2.99 -0.91,4.48 l 0.1,1.08 c 1.49,8.26 13.83,15.91 19,16.67 l 65.4,8.3 c 9.42,1.36 11.81,2.27 16.61,9.14 2.43,8.19 2.71,9.87 2.76,18.76 -0.76,16.95 14.48,36.33 24.37,47.73 l 21.55,21.55 -8.48,-8.48 7.69,-7.69 c 0.06,-0.06 0.09,-0.13 0.15,-0.19 L 280.39,261.65 c 4.14,-4.14 10.85,-4.13 14.99,0 4.14,4.14 4.13,10.85 0,14.99 l -87,86.91 0.02,0.02 -21.69,21.69 13.09,13.09 c 11.4,9.88 30.78,25.13 47.73,24.37 8.89,0.05 10.57,0.33 18.76,2.76 6.87,4.8 7.77,7.2 9.14,16.61 l 8.3,65.41 c 0.76,5.17 8.4,17.51 16.67,19 0,0.01 1.08,0.11 1.08,0.1 1.5,0.09 3,-0.14 4.48,-0.91 l 68.39,-45.01 c 12.5,-9.72 23.22,-21.38 33.75,-36.69 21.54,-31.32 21.1,-57.72 20.63,-85.68 -0.07,-4.28 -0.15,-8.66 -0.14,-13.17 0,-6.01 3.22,-12.04 9.56,-17.92 C 573.8,201.12 577.06,77.74 528.28,28.8 Z M 379.05,177.95 C 344.93,143.51 316.9,100.36 317.4,70.08 386.6,18.94 468.63,3.78 511.18,43.34 c 0.42,0.39 0.79,0.8 1.19,1.2 l 0.05,0.05 0.05,0.05 c 0.4,0.4 0.81,0.77 1.2,1.19 39.56,42.56 24.39,124.58 -26.75,193.79 -30.28,0.5 -73.43,-27.53 -107.87,-61.65 z"
         id="path5" />
      <path
         class="cls-2"
         d="m 382.59,69.55 c -3.96,0 -7.75,-2.23 -9.57,-6.03 -2.52,-5.28 -0.28,-11.61 5,-14.13 30.34,-14.48 63.95,-19.59 94.66,-14.38 5.77,0.98 9.66,6.45 8.68,12.22 -0.98,5.77 -6.45,9.67 -12.22,8.68 -26.43,-4.48 -55.55,0 -81.98,12.61 -1.47,0.7 -3.03,1.04 -4.56,1.04 z"
         id="path6" />
      <path
         id="ellipse6"
         class="cls-1"
         d="M 445.51953,0.01757223 C 386.34186,0.98876218 308.59172,34.058676 229.7793,118.83985 c -5.88999,6.33999 -11.90993,9.55053 -17.91992,9.56054 -4.51,0 -8.88993,-0.0706 -13.16993,-0.14062 -27.95997,-0.47001 -54.35972,-0.89913 -85.67968,20.63085 -15.309988,10.53 -26.969465,21.26001 -36.689454,33.75001 l -45.009765,68.38866 c -0.770003,1.48 -1.010158,2.99047 -0.910159,4.48047 l 0.09961,1.08009 c 1.489994,8.25999 13.830005,15.90991 19.000002,16.66991 l 65.400386,8.30078 c 9.41999,1.36 11.80938,2.26869 16.60938,9.13868 2.42999,8.18999 2.70976,9.87173 2.75976,18.76171 -0.76,16.94999 14.48111,36.32853 24.3711,47.72852 l 13.07031,13.07031 15.00423,14.99434 -14.98437,-14.98437 -25.22656,25.18555 c -36.198,-33.70808 -72.299474,-50.56592 -83.78711,-39.125 -12.415628,12.41422 8.386396,53.34519 46.46289,91.42188 38.07572,38.07587 79.00651,58.87881 91.42187,46.46484 11.45906,-11.47348 -5.38916,-47.57524 -39.0996,-83.78125 l 25.21289,-25.17187 13.08593,13.08593 c 11.39999,9.88 30.77853,25.1311 47.72852,24.3711 8.88999,0.05 10.56977,0.32976 18.75977,2.75976 6.86999,4.8 7.77062,7.19938 9.14062,16.60938 l 8.30078,65.41015 c 0.76,5.17 8.39993,17.51 16.66992,19 0,0.01 1.08008,0.10961 1.08008,0.0996 1.5,0.09 3.00047,-0.14016 4.48047,-0.91016 l 68.38867,-45.00978 c 12.49999,-9.71998 23.22001,-21.37946 33.75,-36.68944 21.53998,-31.31997 21.10086,-57.71971 20.63086,-85.67969 -0.07,-4.28 -0.15062,-8.65992 -0.14063,-13.16992 0,-6.01 3.22056,-12.03993 9.56055,-17.91993 C 573.80058,201.12103 577.05958,77.740939 528.27963,28.800983 h 0.01 l -0.0491,-0.05049 c -0.02,-0.02001 -0.031,-0.03078 -0.0409,-0.05084 C 509.84705,10.407156 481.02643,-0.56470192 445.51983,0.01801063 Z M 36.787108,425.46875 c -4.048663,-0.30539 -7.149185,0.56421 -9.150391,2.5664 -9.121753,9.12317 6.166022,39.20113 34.146489,67.18165 27.980509,27.98046 58.058434,43.26819 67.181634,34.14648 9.12605,-9.1204 -6.16173,-39.20074 -34.144525,-67.18359 C 73.769671,441.12914 50.668334,426.51558 36.787108,425.46875 Z M 7.8535179,486.0332 c -2.6943039,-0.20272 -4.7577793,0.37635 -6.089847,1.70898 -6.0719576,6.07329 4.1004197,26.09101 22.7207031,44.71094 18.619521,18.61917 38.635947,28.79046 44.708985,22.71875 6.073587,-6.07217 -4.097858,-26.09004 -22.71875,-44.71094 C 32.466322,496.45259 17.092361,486.7286 7.8535179,486.0332 Z"
         style="fill:#ff7e56;fill-opacity:0" />
    </g>
  </g>
</svg>
